<svg width="256" height="256" viewBox="0 0 256 256" fill="none" xmlns="http://www.w3.org/2000/svg">
<path d="M29.2513 254.992C24.4613 253.73 20.3273 251.872 16.5143 249.27C13.2963 247.073 8.59227 242.531 6.80327 239.894C4.61827 236.672 2.10727 231.156 1.08327 227.33C0.0392687 223.427 0.0232688 221.873 0.00326879 128.196C-0.0147312 34.9932 0.00626886 32.9432 1.02927 28.9382C4.64827 14.7732 15.8533 3.99618 30.3053 0.780182C34.4603 -0.143818 220.08 -0.304818 224.562 0.610182C236.697 3.09318 246.235 10.3902 251.754 21.4152C256.142 30.1802 255.75 20.5352 255.951 124.6C256.079 190.812 255.961 218.61 255.539 222.073C253.563 238.278 242.405 250.848 226.349 254.955C222.241 256.005 220.812 256.021 127.56 255.992C37.3963 255.965 32.7663 255.918 29.2513 254.992Z" fill="#F06A35"/>
<path d="M164.339 206.474C175.809 204.91 184.797 200.312 193.229 191.698C199.329 185.466 203.147 178.721 205.643 169.768C206.679 166.049 206.766 164.238 206.956 142.403C207.1 125.922 206.98 118.203 206.551 116.255C205.929 113.43 204.166 110.807 202.154 109.714C201.534 109.377 197.568 108.948 193.339 108.761C186.252 108.446 185.459 108.308 183.223 106.997C179.675 104.917 178.698 102.673 178.688 96.5772C178.669 84.9302 173.822 74.1172 164.246 64.3572C157.423 57.4052 149.812 52.6992 141.126 50.0622C139.046 49.4302 134.389 49.2152 118.793 49.0322C94.3213 48.7422 88.8893 49.2442 80.5573 52.5622C65.1973 58.6802 54.1623 71.5731 50.1363 88.1031C49.3803 91.2081 49.2333 96.1832 49.0543 124.766C48.8313 160.574 49.0773 165.832 51.3143 172.928C53.1643 178.791 55.0293 182.384 58.8713 187.483C66.1913 197.198 77.1613 204.213 88.1293 206.195C93.3493 207.138 157.744 207.374 164.339 206.475" fill="white"/>
<path d="M162.317 150.441C166.55 154.394 165.657 161.431 160.556 164.321L155.313 165.174L124.374 165.532C103.514 165.727 97.2459 165.316 95.9649 164.808L95.925 164.791C93.407 163.694 91.0629 160.648 90.6579 157.946C90.2719 155.373 91.5659 151.836 93.5479 150.041L93.9889 149.657C95.9429 148.052 98.1909 147.764 116.624 147.699L137.941 147.677C159.49 147.693 159.679 147.978 162.317 150.441ZM131.944 92.0901C135.23 93.7501 136.658 96.0902 136.658 99.8172C136.658 103.053 135.418 105.357 132.664 107.215L132.13 107.556C130.79 108.356 129.476 108.495 119.089 108.576L112.386 108.614C104.077 108.631 97.6809 108.457 96.6589 108.175C90.7949 106.559 88.604 98.1462 92.914 93.7952L93.315 93.3972C95.622 91.1622 97.09 90.9312 110.607 90.9102L120.793 90.9182C129.401 90.9582 130.088 91.1531 131.944 92.0901Z" fill="#F06A35"/>
</svg>
